<svg xmlns="http://www.w3.org/2000/svg" width="100" height="100" viewBox="0 0 100 100" role="img" aria-label="Calqeo">
  <rect width="100" height="100" fill="#FFFFFF"/>
  <g transform="translate(12.1987, 9.6912) scale(1.017307)">
    <path d="M38.38 76.98L38.38 76.98Q28.71 76.98 21.07 72.58Q13.43 68.19 9.01 59.84Q4.59 51.49 4.59 39.67L4.59 39.67Q4.59 27.81 9.03 19.43Q13.48 11.06 21.14 6.66Q28.81 2.27 38.38 2.27L38.38 2.27Q44.58 2.27 49.93 4.00Q55.27 5.74 59.42 9.06Q63.57 12.38 66.21 17.19Q68.85 22.00 69.68 28.15L69.68 28.15L54.59 28.15Q54.10 25.12 52.71 22.80Q51.32 20.48 49.24 18.85Q47.17 17.21 44.48 16.36Q41.80 15.50 38.67 15.50L38.67 15.50Q33.01 15.50 28.74 18.33Q24.46 21.17 22.09 26.56Q19.73 31.96 19.73 39.67L19.73 39.67Q19.73 47.53 22.12 52.90Q24.51 58.28 28.76 61.01Q33.01 63.74 38.62 63.74L38.62 63.74Q41.75 63.74 44.41 62.89Q47.07 62.04 49.19 60.40Q51.32 58.76 52.71 56.42Q54.10 54.08 54.64 51.10L54.64 51.10L69.73 51.10Q69.14 56.18 66.72 60.81Q64.31 65.45 60.30 69.12Q56.30 72.78 50.78 74.88Q45.26 76.98 38.38 76.98Z" fill="#000000"/>
  </g>
</svg>